<?xml version="1.0" encoding="utf-8"?>
<!-- Uploaded to: SVG Repo, www.svgrepo.com, Generator: SVG Repo Mixer Tools -->
<svg width="800px" height="800px" viewBox="0 0 1024 1024" class="icon"  version="1.1" xmlns="http://www.w3.org/2000/svg"><path d="M547.3 535m-310.8 0a310.8 310.8 0 1 0 621.6 0 310.8 310.8 0 1 0-621.6 0Z" fill="#89B7F5" /><path d="M547.3 860.8c-87 0-168.8-33.9-230.4-95.4-61.5-61.6-95.4-143.4-95.4-230.4s33.9-168.8 95.4-230.4c61.5-61.5 143.3-95.4 230.4-95.4 87 0 168.8 33.9 230.4 95.4 61.5 61.5 95.4 143.3 95.4 230.4s-33.9 168.8-95.4 230.4c-61.6 61.5-143.4 95.4-230.4 95.4z m0-621.6c-79 0-153.3 30.8-209.2 86.6-55.8 55.9-86.6 130.2-86.6 209.2s30.8 153.3 86.6 209.2 130.1 86.6 209.2 86.6c79 0 153.3-30.8 209.2-86.6 55.9-55.9 86.6-130.1 86.6-209.2 0-79-30.8-153.3-86.6-209.2-55.9-55.8-130.2-86.6-209.2-86.6z" fill="#0F53A8" /><path d="M547.3 535m-228.7 0a228.7 228.7 0 1 0 457.4 0 228.7 228.7 0 1 0-457.4 0Z" fill="#B6CDEF" /><path d="M547.3 778.7c-65.1 0-126.3-25.3-172.3-71.4-46-46-71.4-107.2-71.4-172.3S329 408.7 375 362.7s107.2-71.4 172.3-71.4c65.1 0 126.3 25.3 172.3 71.4S791 469.9 791 535s-25.3 126.3-71.4 172.3c-46 46.1-107.2 71.4-172.3 71.4z m0-457.4c-117.8 0-213.7 95.9-213.7 213.7 0 57.1 22.2 110.7 62.6 151.1 40.4 40.4 94 62.6 151.1 62.6 57.1 0 110.7-22.2 151.1-62.6 40.4-40.4 62.6-94 62.6-151.1 0-117.8-95.9-213.7-213.7-213.7z" fill="#0F53A8" /><path d="M954.1 892h-8.2c-13.5 0-24.4-10.9-24.4-24.4v-340h57.1v339.9c0 13.5-11 24.5-24.5 24.5z" fill="#89B7F5" /><path d="M954.1 907h-8.2c-21.7 0-39.4-17.7-39.4-39.4v-340c0-8.3 6.7-15 15-15h57.1c8.3 0 15 6.7 15 15v339.9c0 21.8-17.7 39.5-39.5 39.5z m-17.6-364.4v324.9c0 5.2 4.2 9.4 9.4 9.4h8.2c5.2 0 9.4-4.2 9.4-9.4V542.6h-27z" fill="#0F53A8" /><path d="M978.6 599.8h-57.1V130.1c21 0 31.8 2.2 41.7 11 10 8.8 14.3 21.7 17.9 36.6 8.4 34.9 14.6 126.6 14.6 187.3 0 96.8-17.1 234.8-17.1 234.8z" fill="#B6CDEF" /><path d="M978.6 614.8h-57.1c-8.3 0-15-6.7-15-15V130.1c0-8.3 6.7-15 15-15 22.1 0 37.6 2.4 51.6 14.7 13.9 12.3 18.9 29.3 22.5 44.3 8.9 36.9 15 130.1 15 190.8 0 96.6-17 235.3-17.2 236.7-0.9 7.6-7.2 13.2-14.8 13.2z m-42.1-30h28.7c4.2-36.7 15.4-142.4 15.4-219.9 0-58.9-6.1-150-14.2-183.8-3.2-13.5-6.6-23-13.2-28.9-3.9-3.5-8-5.6-16.8-6.6v439.2z" fill="#0F53A8" /><path d="M191.6 344.8c-8.3 0-15-6.7-15-15v-215c0-8.3 6.7-15 15-15s15 6.7 15 15v215c0 8.3-6.7 15-15 15z" fill="#0F53A8" /><path d="M115.5 907.6c-13.5 0-24.4-10.9-24.4-24.4v-440H140v440c0 13.5-11 24.4-24.5 24.4z" fill="#89B7F5" /><path d="M115.5 922.6c-21.7 0-39.4-17.7-39.4-39.4v-440c0-8.3 6.7-15 15-15H140c8.3 0 15 6.7 15 15v440c0 21.7-17.7 39.4-39.5 39.4z m-9.4-464.5v425c0 5.2 4.2 9.4 9.4 9.4s9.4-4.2 9.4-9.4v-425h-18.8z" fill="#0F53A8" /><path d="M31.5 329.8v29.3c0 46.2 37.8 84 84.1 84s84.1-37.8 84.1-84v-29.3H31.5z" fill="#B6CDEF" /><path d="M115.5 458.1c-54.6 0-99.1-44.4-99.1-99v-29.3c0-8.3 6.7-15 15-15h168.1c8.3 0 15 6.7 15 15v29.3c0.1 54.6-44.4 99-99 99z m-69-113.3v14.3c0 38.1 31 69 69.1 69s69.1-31 69.1-69v-14.3H46.5z" fill="#0F53A8" /><path d="M31.5 344.8c-8.3 0-15-6.7-15-15v-215c0-8.3 6.7-15 15-15s15 6.7 15 15v215c0 8.3-6.8 15-15 15zM84.2 344.8c-8.3 0-15-6.7-15-15v-215c0-8.3 6.7-15 15-15s15 6.7 15 15v215c0 8.3-6.7 15-15 15zM146.8 344.8c-8.3 0-15-6.7-15-15v-215c0-8.3 6.7-15 15-15s15 6.7 15 15v215c0 8.3-6.7 15-15 15z" fill="#0F53A8" /></svg>