<?xml version="1.0" encoding="utf-8"?>
<!-- Uploaded to: SVG Repo, www.svgrepo.com, Generator: SVG Repo Mixer Tools -->
<svg width="800px" height="800px" viewBox="0 0 1024 1024" class="icon"  version="1.1" xmlns="http://www.w3.org/2000/svg"><path d="M417.8 449.7c-14.4-117.6-81.2-206.1-149.2-197.8s-111.4 110.4-97 227.9c9.8 80.1 29.9 143.3 49.7 192.2 13.4 33.1 29.6 69 36 121.3C271.8 911 297 1004.6 361.9 996.7c59.9-7.3 82.5-75.6 68.1-193.2-6.2-50.4-23.1-116.2-25-159.1-2.4-52.7 22.6-114.6 12.8-194.7z" fill="#B6CDEF" /><path d="M354.3 1013.1c-16.2 0-31-5.3-44.1-15.9-13.3-10.8-24.5-26.7-34-48.7-14.9-34.2-25.9-82.9-34.5-153.1-5.7-45.5-18.7-77.4-31.3-108.2-1.3-3.1-2.5-6.2-3.7-9.2-25.8-63.8-42.4-128-50.8-196.3-7.3-59.6-0.7-117.5 18.7-163.1 20.6-48.5 53.3-77.8 92.1-82.6 38.8-4.8 77.6 15.8 109.3 57.9 29.8 39.6 50.3 94.1 57.6 153.7 6.1 49.6-0.5 92-6.4 129.3-3.9 25.1-7.3 46.7-6.4 66.6 1.1 23.6 7.2 56 13.1 87.4 4.5 23.9 9.1 48.6 11.8 70.5 7.5 61.3 5.2 110.1-7 145.1-17 48.9-50.2 62.8-75 65.8-3.1 0.6-6.3 0.8-9.4 0.8z m-76.7-745.8c-2.3 0-4.7 0.1-7 0.4-27 3.3-50.7 25.8-66.7 63.4-17.2 40.5-23.1 92.6-16.4 146.8 8 65.4 24 127 48.7 188.2 1.2 3 2.4 6 3.7 9.1 12.8 31.2 27.2 66.6 33.3 116.3 8.2 67.1 18.4 112.9 32.1 144.3 19.3 44.1 40.4 46.9 54.6 45.1 23.4-2.9 39.4-17.5 48.8-44.7 10.5-30.3 12.4-74.3 5.4-130.8-2.6-20.9-7.1-45.1-11.5-68.5-6.1-32.5-12.4-66-13.6-91.8-1.1-23.1 2.7-47.4 6.7-73 5.5-35.3 11.8-75.3 6.2-120.5-6.6-54.1-24.9-103.3-51.4-138.4-22.4-29.9-48.1-45.9-72.9-45.9z" fill="#0F53A8" /><path d="M283.7 390.9c-7.9 0-14.8-5.9-15.8-14l-7.7-63.2c-1.1-8.7 5.1-16.7 13.9-17.7 8.7-1.1 16.7 5.1 17.7 13.9l7.7 63.2c1.1 8.7-5.1 16.7-13.9 17.7-0.6 0-1.2 0.1-1.9 0.1z" fill="#0F53A8" /><path d="M203 637.5c-0.7 0-1.3 0-2-0.1-8.7-1.1-14.9-9-13.8-17.8 0.3-2.3 7.2-57.6 21.1-114.7 20.6-84.9 44.6-126.2 75.5-130 55.7-6.8 104.9 65 140.9 117.4 2.6 3.9 5.2 7.6 7.6 11.1 5 7.2 3.2 17.1-4 22.1s-17.1 3.2-22.1-4c-2.5-3.5-5-7.3-7.7-11.2-27.8-40.5-74.3-108.3-110.8-103.8-1.7 0.2-10.8 2.6-23.6 29.9-8.7 18.5-17 44-24.8 76-13.4 55.3-20.4 110.5-20.4 111.1-1.1 8.1-8 14-15.9 14z" fill="#0F53A8" /><path d="M605.6 252C634.7 137.2 712.1 57.8 778.5 74.6s96.6 123.5 67.5 238.3c-19.8 78.2-47.8 138.3-73.6 184.4-17.4 31.1-38 64.7-51 115.8-29.1 114.9-65.9 204.6-129.2 188.6-58.5-14.8-72.3-85.4-43.2-200.2 12.5-49.2 37.5-112.4 44.9-154.6 9-52.1-8.1-116.7 11.7-194.9z" fill="#B6CDEF" /><path d="M606.6 819.5c-6 0-12.1-0.8-18.4-2.4-24.3-6.2-55.4-24.1-66.1-74.8-7.6-36.2-3.8-84.9 11.4-144.8 5.4-21.4 13.1-45.3 20.6-68.4 9.8-30.4 20-61.8 24-85 3.4-19.7 2.8-41.6 2.1-66.9-1.1-37.8-2.3-80.7 10-129.1 14.8-58.2 41.9-109.8 76.5-145.3 36.8-37.7 77.9-53.2 115.7-43.7 37.8 9.6 66.6 42.8 80.9 93.5 13.5 47.7 12.8 106-2 164.2-16.9 66.7-41.5 128.2-75.1 188.3-1.6 2.9-3.2 5.7-4.9 8.6-16.4 29-33.3 58.9-44.6 103.3-17.4 68.6-34.4 115.5-53.6 147.5-12.3 20.6-25.3 34.9-39.9 44-11.4 7.3-23.7 11-36.6 11zM760.3 88.2c-22.7 0-47.3 12.7-70.8 36.8-30.7 31.5-55 78-68.4 130.9-11.2 44.1-10 84.6-9 120.4 0.7 25.9 1.4 50.4-2.5 73.3-4.4 25.4-14.9 57.9-25.1 89.4-7.3 22.7-14.9 46.1-20.1 66.5-14 55.1-17.7 99-11.1 130.4 5.9 28.2 19.9 44.7 42.8 50.5 13.9 3.5 35.2 3.4 59.9-37.9 17.5-29.3 33.4-73.5 50-139.1 12.3-48.5 31.1-81.8 47.7-111.2 1.6-2.9 3.2-5.7 4.8-8.5 32.3-57.6 55.8-116.7 72-180.6 13.4-52.9 14.2-105.3 2.2-147.7C821.6 122 801 96.7 774.6 90c-4.7-1.2-9.4-1.8-14.3-1.8z" fill="#0F53A8" /><path d="M748.1 210.7c-1.3 0-2.6-0.2-3.9-0.5-8.5-2.2-13.7-10.8-11.5-19.3l15.7-61.7c2.2-8.5 10.8-13.7 19.3-11.5 8.5 2.2 13.7 10.8 11.5 19.3l-15.7 61.7c-1.9 7.2-8.3 12-15.4 12z" fill="#0F53A8" /><path d="M797.1 465.5s-0.1 0 0 0c-8.8 0-15.9-7.2-15.9-16 0-0.6 0.1-56.4-6.3-113-3.7-32.6-8.7-59-15-78.4-9.3-28.6-18-32.1-19.6-32.5-35.6-9-90.3 52.3-123 89-3.2 3.5-6.2 6.9-9.1 10.1-5.9 6.5-15.9 7.1-22.5 1.2-6.5-5.9-7.1-15.9-1.2-22.5 2.8-3.2 5.8-6.5 8.9-10C635.8 246 693.7 181 748 194.8c30.1 7.6 48.7 51.6 58.5 138.4 6.6 58.4 6.5 114.1 6.5 116.4 0 8.8-7.2 15.9-15.9 15.9z" fill="#0F53A8" /><path d="M359.6 162a57.8 30.4 0 1 0 115.6 0 57.8 30.4 0 1 0-115.6 0Z" fill="#89B7F5" /><path d="M417.4 208.2c-42 0-73.7-19.9-73.7-46.3s31.7-46.3 73.7-46.3 73.7 19.9 73.7 46.3-31.7 46.3-73.7 46.3z m0-60.7c-12.7 0-24.9 2.6-33.5 7.1-7 3.7-8.4 6.9-8.4 7.4s1.5 3.7 8.4 7.4c8.6 4.5 20.8 7.1 33.5 7.1s24.9-2.6 33.5-7.1c7-3.7 8.4-6.9 8.4-7.4s-1.5-3.7-8.4-7.4c-8.6-4.5-20.8-7.1-33.5-7.1z" fill="#0F53A8" /><path d="M417.3 58a39 30.4 0 1 0 78 0 39 30.4 0 1 0-78 0Z" fill="#89B7F5" /><path d="M456.3 104.3c-13.9 0-27.2-4.4-37.3-12.3-11.1-8.7-17.5-21.1-17.5-34s6.4-25.3 17.5-34c10.1-7.9 23.4-12.3 37.3-12.3s27.2 4.4 37.3 12.3c11.1 8.7 17.5 21.1 17.5 34s-6.4 25.3-17.5 34c-10.1 8-23.4 12.3-37.3 12.3z m0-60.7c-13.6 0-23 7.6-23 14.4s9.5 14.4 23 14.4c13.6 0 23-7.6 23-14.4s-9.4-14.4-23-14.4z" fill="#0F53A8" /></svg>