<?xml version="1.0" encoding="utf-8"?>
<!-- Uploaded to: SVG Repo, www.svgrepo.com, Generator: SVG Repo Mixer Tools -->
<svg width="800px" height="800px" viewBox="0 0 1024 1024" class="icon"  version="1.1" xmlns="http://www.w3.org/2000/svg"><path d="M498.2 409.7c-21.9 36-40.7 76.2-55.2 119.8-69.2 208.2-14.5 413.8 122.2 459.2 136.6 45.4 303.5-86.6 372.7-294.8 14.5-43.6 23.5-87.1 27.5-129L498.2 409.7z" fill="#B6CDEF" /><path d="M621 1013.1c-20.8 0-41.1-3.3-60.6-9.8-36.3-12-67.8-34.4-93.6-66.6-24.5-30.5-42.9-68.4-54.7-112.6-23.8-89.6-18-196 16.4-299.5C443 481 462 439.7 485.1 401.7l6.4-10.5 490.4 162.9-1.2 12.2c-4.2 44.3-13.7 88.8-28.2 132.4-34.4 103.5-93.4 192.2-166.1 249.7-35.9 28.4-73.3 47.8-111.2 57.5-18.4 4.8-36.5 7.2-54.2 7.2zM505.1 428.2c-19.1 33.1-35.1 68.7-47.5 106.1-32.5 97.9-38.1 198-15.8 281.8C463.5 897.7 509.1 953.8 570 974c16.5 5.5 33.6 8.2 51.2 8.2 47.4 0 97.7-19.7 146-57.9 68.1-53.8 123.4-137.4 156-235.3 12.4-37.4 21-75.5 25.5-113.4L505.1 428.2z" fill="#0F53A8" /><path d="M624.5 660.3s-44.8 26.3-79 11.3c-34.3-15.1-45.1-65.9-45.1-65.9s37.7-10.4 72 4.7c34.3 15.1 52.1 49.9 52.1 49.9z" fill="#89B7F5" /><path d="M569.4 691.6c-11 0-21.1-2-30.1-5.9-17.4-7.7-32.3-23.6-43.1-46-7.7-16.1-10.7-30.1-10.9-30.7l-3-14.2 14-3.9c1.8-0.5 43.5-11.6 82.3 5.5s58.8 55.4 59.6 57l6.6 12.9-12.5 7.4c-0.5 0.3-13 7.6-30 12.8-11.5 3.3-22.6 5.1-32.9 5.1z m-49-73.5c5.7 14.5 16 32.6 31.3 39.4 15.3 6.7 35.6 2 50.2-3.5-7.5-9.7-19.6-22.3-35.7-29.4-16-7.2-33.5-7.6-45.8-6.5z" fill="#0F53A8" /><path d="M714.2 690.1s20.1 47.9 56.6 56.3c36.5 8.4 75.5-25.8 75.5-25.8s-24-30.9-60.5-39.3c-36.5-8.5-71.6 8.8-71.6 8.8z" fill="#89B7F5" /><path d="M782.6 763.1c-5.3 0-10.4-0.6-15.3-1.7-18.6-4.3-36.2-17.1-50.9-37.2-10.5-14.3-16.2-27.6-16.4-28.2l-5.6-13.4 13-6.4c1.6-0.8 40.5-19.5 81.9-10 41.3 9.5 68.1 43.4 69.2 44.9l8.9 11.5-10.9 9.6c-0.5 0.4-11.3 9.9-27.1 18.1-16.3 8.5-32.2 12.8-46.8 12.8z m-46.5-64.6c8.3 13.2 21.8 29.1 38.1 32.8 17.1 3.9 36.2-5.1 48.6-12.9-9.2-8.1-23.4-18.3-40.5-22.2-17.1-3.9-34.4-1-46.2 2.3z" fill="#0F53A8" /><path d="M609.4 92.7c-53.5 30.1-108 169.5-108 169.5s-121.3-87.7-182.6-84c-85.3 5.1-257.9 89.2-257.9 89.2 202.2 293.7 461.2 65 461.2 65s341.5 52 352.5-304.4c0 0-190.7 22.8-265.2 64.7z" fill="#B6CDEF" /><path d="M304.7 432.5c-10.8 0-21.5-0.6-32-1.9-85.7-10.5-161.2-62.5-224.5-154.5L38 261.3l16.1-7.8c7.2-3.5 176.4-85.5 263.8-90.7 28.4-1.7 69.7 12.6 122.8 42.6 21.9 12.4 41.1 24.8 53.8 33.3 6.1-14.1 15.5-34.9 27.2-57.1 28.4-53.9 55.3-88.3 80.2-102.3 76.3-42.9 263-65.6 270.9-66.5l17.8-2.1-0.6 17.8c-3.4 111.6-38.8 196.2-105.1 251.5-45 37.5-105.1 61.1-173.9 68.2-39.3 4.1-70.7 1.7-84.2 0.3-10.6 8.5-35.8 27.5-71 45.3-50.5 25.6-102.1 38.7-151.1 38.7zM84.1 273.4c55.8 75.2 120.4 117.8 192.3 126.6 126.4 15.5 234.3-78.3 235.4-79.2l5.4-4.8 7.1 1.1c0.3 0.1 36.5 5.4 84.4 0.3 43.5-4.6 105.9-19 156.6-61.2 55.6-46.4 86.8-117.1 93-210.4-48.9 6.8-183.5 27.9-241.3 60.4-39.9 22.4-86.6 124.3-101.2 161.7l-7.3 18.5-16.1-11.7c-32.5-23.5-126.9-83.9-172.6-81.1-66.3 3.9-190.9 59.1-235.7 79.8z" fill="#0F53A8" /><path d="M444.3 272.6s-26.5 57.6-71.4 66.3c-44.9 8.7-91.1-34.7-91.1-34.7s30.6-36.7 75.5-45.4c44.9-8.7 87 13.8 87 13.8z" fill="#89B7F5" /><path d="M360.7 355.5c-46.3 0-87.5-38.2-89.4-40l-10.6-10 9.3-11.2c1.4-1.7 34.7-41 84.4-50.7 49.7-9.7 95.3 14.3 97.2 15.3l12.8 6.8-6.1 13.2c-1.2 2.6-30.4 64.9-82.5 75-5 1.2-10.1 1.6-15.1 1.6zM304.9 303c3.9 2.8 8.6 5.9 13.8 8.8 13.2 7.5 32.9 15.6 51.2 12 18.4-3.6 33.5-18.5 43-30.4 3.7-4.7 6.9-9.3 9.5-13.3-14.6-5.1-38.2-10.8-62.2-6.2-24.1 4.8-43.7 18.9-55.3 29.1z" fill="#0F53A8" /><path d="M555 240.1s53.5 34.1 95.9 17.1 57.8-78.5 57.8-78.5-45.6-14.3-88 2.7-65.7 58.7-65.7 58.7z" fill="#89B7F5" /><path d="M624.9 277.3c-39.6 0-76.2-23-78.2-24.2l-12.3-7.8 7.1-12.7c1.1-1.9 26.4-46.7 73.4-65.5 47-18.8 96.3-3.7 98.4-3.1l13.9 4.3-3.5 14.1c-0.7 2.8-17.8 69.4-67 89.1-10.4 4.2-21.2 5.8-31.8 5.8z m-47.4-42.7c4.4 2 9.5 4.2 15.2 6.1 14.4 4.9 35.2 9.2 52.6 2.3 17.4-6.9 29.5-24.4 36.6-37.8 2.8-5.3 5.1-10.4 6.8-14.9-15.3-2.3-39.5-3.5-62.2 5.5-22.8 9-39.5 26.6-49 38.8z" fill="#0F53A8" /><path d="M75.654 262.987l158.428 538.799-29.55 8.688L46.105 271.675z" fill="#0F53A8" /></svg>